<mxfile host="app.diagrams.net" modified="2023-11-05T06:35:39.300Z" agent="Mozilla/5.0 (Windows NT 10.0; Win64; x64) AppleWebKit/537.36 (KHTML, like Gecko) Chrome/119.0.0.0 Safari/537.36 Edg/119.0.0.0" version="22.0.8" etag="VS5Z3OIffg2WsInk4TTR" type="github">
  <diagram name="Trang-1" id="bAOrh9lmSpA5uver3cAr">
    <mxGraphModel>
      <root>
        <mxCell id="0" />
        <mxCell id="1" parent="0" />
      </root>
    </mxGraphModel>
  </diagram>
</mxfile>
